# xmcd CD database file
#
# Track frame offsets:
#	150
#	16687
#	42950
#	70687
#	99125
#	124050
#	150037
#	172012
#	198900
#	223275
#
# Disc length: 3404 seconds
#
# Revision: 0
# Processed by: cddbd v1.4PL0 Copyright (c) Steve Scherf et al.
# Submitted via: CDex 1.50beta10
#
DISCID=760d4a0a
DTITLE=Various Artist - Lover's Tears Jazz
DYEAR=1997
DGENRE=Jazz
TTITLE0=Close To You -- Kimiko Itoh
TTITLE1=Charade -- Fred Karlin
TTITLE2=En Aranjues Con Tu Amor -- Charlie Mariano
TTITLE3=Heaven Can Wait -- Fred Karlin
TTITLE4=That's What Friend Are for -- Tom Brone
TTITLE5=Udama -- Luis Conte
TTITLE6=For My Mother -- Urbanator
TTITLE7=Autumn In New York -- Phil Woods, Vincent Herring, Antonio Heart
TTITLE8=All The Time Your -- Phil Woods, Vincent Herring, Antonio Heart
TTITLE9=Cry Me A River -- Benny Golson
EXTD=YEAR: 1997
EXTT0=
EXTT1=
EXTT2=
EXTT3=
EXTT4=
EXTT5=
EXTT6=
EXTT7=
EXTT8=
EXTT9=
PLAYORDER=
